<svg width="50" height="50" viewBox="0 0 40 40" version="1.1" xmlns="http://www.w3.org/2000/svg">
    <g stroke="none" stroke-width="1" fill="none" fill-rule="evenodd">
        <g transform="translate(-1230.000000, -92.000000)" fill="#24232B">
            <g transform="translate(170.000000, 92.000000)">
                <g transform="translate(1060.000000, 0.000000)">
                    <path d="M24.4 26.4L24.6 25.4C24.5 23.8 23.7 22.4 22.4 21.6L17.3 18.7C15.6 17.7 14.5 15.8 14.5 13.9L14.5 13.8 14.7 12.7C15.2 10.3 17.2 8.6 19.5 8.3L19.5 7.1C16.1 7.4 13.3 10.3 13.3 13.9 13.3 14.3 13.4 14.8 13.5 15.2 13.9 17.1 15 18.7 16.7 19.7L21.8 22.6C22.7 23.2 23.4 24.3 23.4 25.4 23.4 27.2 21.9 28.6 20.1 28.6 19.6 28.6 19 28.5 18.5 28.2L14.8 26C12.5 24.7 11.1 22.3 11.1 19.6 11.1 18.1 11.5 16.5 12.3 15.2 12.2 14.8 12.2 14.3 12.2 13.9 12.2 13.6 12.2 13.4 12.2 13.2 10.7 15 9.9 17.3 9.9 19.6 9.9 22.7 11.5 25.5 14.2 27L17.9 29.2C18.6 29.6 19.3 29.8 20.1 29.8L20.1 29.8C22.2 29.8 24 28.4 24.4 26.4M15.4 25L19.1 27.2C19.4 27.3 19.8 27.4 20.1 27.4 21.3 27.4 22.2 26.5 22.2 25.4 22.2 24.7 21.8 24 21.2 23.6L16.1 20.7C14.6 19.8 13.4 18.5 12.8 16.9 12.4 17.8 12.3 18.7 12.3 19.6 12.3 21.8 13.5 23.9 15.4 25M24.9 14.3L21.2 12.1C20.9 11.9 20.5 11.8 20.1 11.8 19 11.8 18.1 12.7 18.1 13.9 18.1 14.6 18.5 15.3 19.1 15.6L24.2 18.6C25.7 19.4 26.8 20.8 27.5 22.4 27.8 21.5 28 20.6 28 19.6 28 17.4 26.8 15.4 24.9 14.3M20 0.1C9 0.1 0.1 9 0.1 19.9 0.1 30.8 9 39.7 20 39.7 31 39.7 39.9 30.8 39.9 19.9 39.9 9 31 0.1 20 0.1L20 0.1ZM27.6 28.2C26.4 31.2 23.5 33.3 20.1 33.3L19.5 33.3 19.5 30.9C18.8 30.8 18 30.6 17.3 30.2L13.6 28C10.6 26.3 8.7 23.1 8.7 19.6 8.7 16.3 10.2 13.2 12.7 11.1 13.8 8.1 16.7 5.9 20.1 5.9L20.7 5.9 20.7 8.3C21.5 8.4 22.3 8.7 23 9.1L26.7 11.2C29.7 13 31.5 16.2 31.5 19.6 31.5 22.9 30.1 26 27.6 28.2L27.6 28.2ZM26.1 12.2L22.4 10.1C21.7 9.7 20.9 9.5 20.1 9.5 18.1 9.5 16.3 10.9 15.8 12.9L15.7 13.9C15.7 15.4 16.6 16.9 17.9 17.7L23 20.6C24.7 21.6 25.7 23.4 25.7 25.4L25.7 25.5 25.6 26.6C25.1 28.9 23.1 30.7 20.7 30.9L20.7 32.1C24.2 31.8 26.9 28.9 26.9 25.4 26.9 25 26.9 24.5 26.8 24.1 26.4 22.2 25.2 20.5 23.6 19.6L18.5 16.6C17.5 16.1 16.9 15 16.9 13.9 16.9 12.1 18.4 10.7 20.1 10.7 20.7 10.7 21.3 10.8 21.8 11.1L25.5 13.3C27.8 14.6 29.2 17 29.2 19.6 29.2 21.2 28.8 22.7 28 24.1 28.1 24.5 28.1 25 28.1 25.4 28.1 25.6 28.1 25.8 28.1 26 29.5 24.2 30.4 22 30.4 19.6 30.4 16.6 28.7 13.8 26.1 12.2"/>
                </g>
            </g>
        </g>
    </g>
</svg>
